<svg xmlns="http://www.w3.org/2000/svg" height="237.055" viewBox="0 0 651.588 237.055">
  <g id="read" transform="translate(-1.5 -12)" opacity="0.324">
    <path id="Path_434" data-name="Path 434" d="M179.206,189.694a59.235,59.235,0,1,0-59.235-59.235A59.235,59.235,0,0,0,179.206,189.694ZM281.821,71.224A118.53,118.53,0,0,0,64.447,100.841H31.118a29.618,29.618,0,1,0,0,59.235H64.467a118.53,118.53,0,0,0,233.209-29.618h59.235a118.471,118.471,0,0,0,233.209,29.618H623.47a29.618,29.618,0,0,0,0-59.235H590.121A118.53,118.53,0,0,0,372.747,71.224H281.821Zm134.326,59.235a59.235,59.235,0,1,0,59.235-59.235A59.235,59.235,0,0,0,416.147,130.459Z" transform="translate(0 0)" fill="#e6e6e6" fill-rule="evenodd"/>
  </g>
</svg>
