<!-- <svg xmlns="http://www.w3.org/2000/svg" width="25.647" height="21.11" viewBox="0 0 25.647 21.11">
  <path id="Path_215" data-name="Path 215" d="M318.954,207.818a10.588,10.588,0,0,1-2.593.739c.417-.07,1.029-.825,1.275-1.131a4.763,4.763,0,0,0,.861-1.57c.023-.045.039-.1-.005-.135a.148.148,0,0,0-.138.011,13.214,13.214,0,0,1-3.075,1.177.2.2,0,0,1-.212-.056,2.5,2.5,0,0,0-.269-.274,5.45,5.45,0,0,0-1.49-.913,5.2,5.2,0,0,0-2.285-.368,5.461,5.461,0,0,0-2.167.612,5.585,5.585,0,0,0-1.749,1.428,5.378,5.378,0,0,0-1.044,2.092,5.67,5.67,0,0,0-.056,2.208c.017.124.006.14-.106.124a16.426,16.426,0,0,1-10.567-5.379c-.123-.141-.19-.141-.291.011a5.358,5.358,0,0,0,.913,6.331c.207.2.42.393.649.572a5.385,5.385,0,0,1-2.039-.572c-.123-.078-.186-.033-.2.107a3.242,3.242,0,0,0,.033.6,5.417,5.417,0,0,0,3.34,4.32,3.177,3.177,0,0,0,.677.208,6.038,6.038,0,0,1-2,.061c-.146-.028-.2.045-.146.185a5.626,5.626,0,0,0,4.2,3.519c.191.033.381.033.572.078-.011.018-.023.018-.034.034-.471.72-2.107,1.255-2.869,1.521a10.272,10.272,0,0,1-4.358.558c-.234-.035-.283-.032-.347,0s-.008.1.067.156c.3.2.6.371.907.538a14.392,14.392,0,0,0,2.913,1.166c5.235,1.446,11.133.383,15.064-3.523,3.087-3.067,4.169-7.3,4.169-11.532,0-.166.2-.257.311-.345a10.182,10.182,0,0,0,2.051-2.132.65.65,0,0,0,.136-.408v-.022C319.06,207.75,319.058,207.771,318.954,207.818Z" transform="translate(-293.413 -205.288)" fill="#19a79e"/>
</svg> -->

<?xml version="1.0" encoding="iso-8859-1"?>
<!-- Generator: Adobe Illustrator 19.0.0, SVG Export Plug-In . SVG Version: 6.00 Build 0)  -->
<svg version="1.1" id="Layer_1" xmlns="http://www.w3.org/2000/svg" xmlns:xlink="http://www.w3.org/1999/xlink" x="0px" y="0px"
	 viewBox="0 0 382 382" style="enable-background:new 0 0 382 382;" xml:space="preserve">
<path style="fill:#0077B7;" d="M347.445,0H34.555C15.471,0,0,15.471,0,34.555v312.889C0,366.529,15.471,382,34.555,382h312.889
	C366.529,382,382,366.529,382,347.444V34.555C382,15.471,366.529,0,347.445,0z M118.207,329.844c0,5.554-4.502,10.056-10.056,10.056
	H65.345c-5.554,0-10.056-4.502-10.056-10.056V150.403c0-5.554,4.502-10.056,10.056-10.056h42.806
	c5.554,0,10.056,4.502,10.056,10.056V329.844z M86.748,123.432c-22.459,0-40.666-18.207-40.666-40.666S64.289,42.1,86.748,42.1
	s40.666,18.207,40.666,40.666S109.208,123.432,86.748,123.432z M341.91,330.654c0,5.106-4.14,9.246-9.246,9.246H286.73
	c-5.106,0-9.246-4.14-9.246-9.246v-84.168c0-12.556,3.683-55.021-32.813-55.021c-28.309,0-34.051,29.066-35.204,42.11v97.079
	c0,5.106-4.139,9.246-9.246,9.246h-44.426c-5.106,0-9.246-4.14-9.246-9.246V149.593c0-5.106,4.14-9.246,9.246-9.246h44.426
	c5.106,0,9.246,4.14,9.246,9.246v15.655c10.497-15.753,26.097-27.912,59.312-27.912c73.552,0,73.131,68.716,73.131,106.472
	L341.91,330.654L341.91,330.654z"/>
<g>
</g>
<g>
</g>
<g>
</g>
<g>
</g>
<g>
</g>
<g>
</g>
<g>
</g>
<g>
</g>
<g>
</g>
<g>
</g>
<g>
</g>
<g>
</g>
<g>
</g>
<g>
</g>
<g>
</g>
</svg>
