<svg xmlns="http://www.w3.org/2000/svg" width="335.797" height="165.208" viewBox="0 0 335.797 165.208">
  <g id="Group_954" data-name="Group 954" transform="translate(-613.289 -7001.857)">
    <g id="Group_951" data-name="Group 951" transform="translate(613.289 7001.857)">
      <path id="Path_738" data-name="Path 738" d="M904.357,451.579c-91.148,0-166.385-80.951-167.138-81.768l-.763-.836.763-.836c.753-.818,75.99-81.768,167.138-81.768s166.38,80.951,167.134,81.768l.763.836-.763.836C1070.738,370.628,995.5,451.579,904.357,451.579Zm-164.529-82.6c8.236,8.585,79.453,80.133,164.529,80.133,85.094,0,156.293-71.543,164.524-80.133-8.236-8.585-79.453-80.133-164.524-80.133C819.259,288.841,748.06,360.385,739.828,368.974Z" transform="translate(-736.457 -286.37)" fill="#3ecdc4"/>
    </g>
    <g id="Group_952" data-name="Group 952" transform="translate(742.802 7046.078)">
      <path id="Path_739" data-name="Path 739" d="M803.04,372.763a38.383,38.383,0,1,1,38.383-38.383A38.425,38.425,0,0,1,803.04,372.763Zm0-73.666a35.282,35.282,0,1,0,35.287,35.282A35.325,35.325,0,0,0,803.04,299.1Z" transform="translate(-764.652 -295.997)" fill="#3ecdc4"/>
    </g>
    <g id="Group_953" data-name="Group 953" transform="translate(698.585 7001.857)">
      <path id="Path_740" data-name="Path 740" d="M837.63,451.579a82.6,82.6,0,1,1,82.6-82.6A82.7,82.7,0,0,1,837.63,451.579Zm0-161.359a78.753,78.753,0,1,0,78.751,78.755A78.846,78.846,0,0,0,837.63,290.219Z" transform="translate(-755.026 -286.37)" fill="#3ecdc4"/>
    </g>
  </g>
</svg>
