<svg xmlns="http://www.w3.org/2000/svg" width="25.937" height="25.937" viewBox="0 0 25.937 25.937">
  <g id="Group_324" data-name="Group 324" transform="translate(0 0)">
    <g id="Group_323" data-name="Group 323" transform="translate(0 0)">
      <path id="Path_212" data-name="Path 212" d="M323.72,157.011a1.52,1.52,0,1,0,1.52,1.52A1.52,1.52,0,0,0,323.72,157.011Z" transform="translate(-303.886 -152.38)" fill="#19a79e"/>
      <path id="Path_213" data-name="Path 213" d="M312.726,159.671a6.388,6.388,0,1,0,6.387,6.387A6.395,6.395,0,0,0,312.726,159.671Zm0,10.479a4.092,4.092,0,1,1,4.091-4.092A4.1,4.1,0,0,1,312.726,170.15Z" transform="translate(-299.651 -153.09)" fill="#19a79e"/>
      <path id="Path_214" data-name="Path 214" d="M315.361,176.631H305.007a7.8,7.8,0,0,1-7.791-7.79V158.484a7.8,7.8,0,0,1,7.791-7.79h10.354a7.8,7.8,0,0,1,7.792,7.79V168.84A7.8,7.8,0,0,1,315.361,176.631Zm-10.354-23.5a5.356,5.356,0,0,0-5.351,5.351V168.84a5.357,5.357,0,0,0,5.351,5.351h10.354a5.357,5.357,0,0,0,5.351-5.351V158.484a5.357,5.357,0,0,0-5.351-5.351Z" transform="translate(-297.216 -150.694)" fill="#19a79e"/>
    </g>
  </g>
</svg>
