
      <svg class="contact__mobile--SVGG" xmlns="http://www.w3.org/2000/svg" width="476.452" height="835.104"
        viewBox="0 0 476.452 835.104">
        <path id="Path_892" data-name="Path 892" d="M0,90.9H428V926H0Z" transform="translate(48.452 -90.896)"
          fill="#19a79d" />
        <g id="Group_1081" data-name="Group 1081" transform="translate(-15585.166 -8947.542)">
          <text id="are" transform="translate(15705.988 9274)" fill="#fff" font-size="60"
            font-family="SegoeUI, Segoe UI">
            <tspan x="0" y="0">are</tspan>
          </text>
          <text id="all" transform="translate(15799.988 9274)" fill="#fff" font-size="60"
            font-family="SegoeUI, Segoe UI">
            <tspan x="0" y="0">all</tspan>
          </text>
          <text id="user" transform="translate(15705.988 9346)" fill="#fff" font-size="60"
            font-family="SegoeUI, Segoe UI">
            <tspan x="0" y="0">user</tspan>
          </text>
          <text id="friendly" transform="translate(15832.988 9346)" fill="#fff" font-size="60"
            font-family="SegoeUI, Segoe UI">
            <tspan x="0" y="0">friendly</tspan>
          </text>
          <text id="here" transform="translate(15874.53 9427.336)" fill="#fff" font-size="60"
            font-family="SegoeUI, Segoe UI">
            <tspan x="0" y="0">here</tspan>
          </text>
          <path id="Path_757" data-name="Path 757"
            d="M446.947,330H433.472V278.214h7.7v-7.7H411.489v52.92L425.754,337.7h7.717v0h13.476Z"
            transform="translate(15255.129 8876.188)" fill="#40ccb4" />
          <path id="Path_758" data-name="Path 758"
            d="M1459.345,368.5l-14.265-14.265h-7.717v0h-13.476l7.7,7.7h5.774v51.787h-7.7v7.7h29.682Z"
            transform="translate(14569.644 9025.505)" fill="#40ccb4" />
          <g id="Group_929" data-name="Group 929" transform="translate(15881.216 9148.228)">
            <circle id="Ellipse_8" data-name="Ellipse 8" cx="73.886" cy="73.886" r="73.886" fill="#131c1b" />
            <g id="Group_928" data-name="Group 928" transform="translate(16.617 16.616)">
              <g id="Group_924" data-name="Group 924">
                <path id="Path_678" data-name="Path 678"
                  d="M-1470.55-1191.539a57.334,57.334,0,0,1-57.269-57.269,57.334,57.334,0,0,1,57.269-57.271,57.336,57.336,0,0,1,57.271,57.271A57.335,57.335,0,0,1-1470.55-1191.539Zm0-113.709a56.5,56.5,0,0,0-56.439,56.44,56.5,56.5,0,0,0,56.439,56.438,56.5,56.5,0,0,0,56.44-56.438A56.5,56.5,0,0,0-1470.55-1305.248Z"
                  transform="translate(1527.819 1306.079)" fill="#fcfcfc" />
              </g>
              <g id="Group_925" data-name="Group 925" transform="translate(0.819 29.497)">
                <path id="Path_679" data-name="Path 679"
                  d="M-1470.839-1231.435c-30.645,0-55.941-27.216-56.194-27.492l-.256-.279.256-.281c.253-.277,25.549-27.492,56.194-27.492s55.943,27.216,56.2,27.492l.256.281-.256.279C-1414.9-1258.651-1440.194-1231.435-1470.839-1231.435Zm-55.317-27.772c2.769,2.885,26.714,26.943,55.317,26.943s52.551-24.056,55.319-26.943c-2.771-2.887-26.714-26.944-55.319-26.944S-1523.388-1262.095-1526.155-1259.207Z"
                  transform="translate(1527.289 1286.98)" fill="#fcfcfc" />
              </g>
              <g id="Group_926" data-name="Group 926" transform="translate(44.364 44.364)">
                <path id="Path_680" data-name="Path 680"
                  d="M-1486.189-1251.542a12.919,12.919,0,0,1-12.905-12.905,12.92,12.92,0,0,1,12.905-12.907,12.921,12.921,0,0,1,12.906,12.907A12.919,12.919,0,0,1-1486.189-1251.542Zm0-24.77a11.877,11.877,0,0,0-11.862,11.865,11.877,11.877,0,0,0,11.862,11.862,11.876,11.876,0,0,0,11.865-11.862A11.876,11.876,0,0,0-1486.189-1276.312Z"
                  transform="translate(1499.094 1277.354)" fill="#fcfcfc" />
              </g>
              <g id="Group_927" data-name="Group 927" transform="translate(29.497 29.497)">
                <path id="Path_681" data-name="Path 681"
                  d="M-1480.948-1231.435a27.8,27.8,0,0,1-27.772-27.772,27.8,27.8,0,0,1,27.772-27.773,27.8,27.8,0,0,1,27.774,27.773A27.8,27.8,0,0,1-1480.948-1231.435Zm0-54.251a26.51,26.51,0,0,0-26.479,26.479,26.508,26.508,0,0,0,26.479,26.476,26.507,26.507,0,0,0,26.479-26.476A26.509,26.509,0,0,0-1480.948-1285.686Z"
                  transform="translate(1508.72 1286.98)" fill="#fcfcfc" />
              </g>
            </g>
          </g>
          <g id="Group_1079" data-name="Group 1079" transform="translate(15657.651 5094.364)">
            <text id="e" transform="translate(98.337 4112)" fill="#131c1b" font-size="60"
              font-family="SegoeUI, Segoe UI">
              <tspan x="0" y="0">e</tspan>
            </text>
            <path id="Path_756" data-name="Path 756"
              d="M549.135,318.842l-14.68,42.7h-5.493l-7.515-23.152-7.819,23.152-5.5.061L494.5,318.842h5.129l11.428,36.9,8.183-25.355h4.643l7.765,25.355,12.362-36.9Z"
              transform="translate(-450.079 3750.33)" fill="#131c1b" />
          </g>
          <g id="Group_1080" data-name="Group 1080" transform="translate(15705.988 9376.47)">
            <g id="Group_922" data-name="Group 922" transform="translate(75.722)">
              <path id="Path_649" data-name="Path 649"
                d="M-1596.786-1280.711l-1.335-5.537c-.463-1.887-.907-3.792-1.318-5.679h-.035c-.41,1.888-.855,3.792-1.317,5.679l-1.335,5.537h-2.35l-2.956-12.677h1.638l1.193,5.128c.463,1.994.89,3.988,1.318,5.964h.035c.445-1.976.907-3.988,1.406-5.982l1.246-5.109h2.28l1.247,5.109c.5,1.994.96,4.006,1.406,5.982h.036c.409-1.976.854-3.97,1.316-5.964l1.193-5.128h1.638l-2.956,12.677Z"
                transform="translate(1607.433 1293.388)" fill="#131c1b" />
              <path id="Path_650" data-name="Path 650"
                d="M-1587.127-1288.616a3.181,3.181,0,0,1,2.688-1.336c2.066,0,3.276,1.247,3.276,3.722v5.519h-1.567v-5.395c0-1.888-.782-2.564-2.082-2.564-1.283,0-2.351.944-2.351,2.778v5.181h-1.566v-12.677h1.566v4.772Z"
                transform="translate(1606.427 1293.388)" fill="#131c1b" />
              <path id="Path_651" data-name="Path 651"
                d="M-1571.758-1283.225h1.6a3.76,3.76,0,0,1-3.988,2.955c-2.67,0-4.254-1.941-4.254-4.9,0-2.67,1.567-4.646,4.2-4.646a3.872,3.872,0,0,1,3.953,3.151,8.47,8.47,0,0,1,.177,1.942h-6.765c.071,2.225,1.21,3.24,2.687,3.24A2.249,2.249,0,0,0-1571.758-1283.225Zm-5.057-2.688h5.2c-.161-1.763-1.193-2.689-2.581-2.689A2.6,2.6,0,0,0-1576.815-1285.914Z"
                transform="translate(1605.872 1293.196)" fill="#131c1b" />
              <path id="Path_652" data-name="Path 652"
                d="M-1559.6-1286.035v5.519h-1.567v-5.395c0-1.888-.782-2.564-2.082-2.564-1.283,0-2.351.961-2.351,2.778v5.181h-1.566v-9.044h1.514v1.192h.034a3.205,3.205,0,0,1,2.741-1.389C-1560.81-1289.757-1559.6-1288.51-1559.6-1286.035Z"
                transform="translate(1605.268 1293.193)" fill="#131c1b" />
            </g>
            <path id="Path_653" data-name="Path 653"
              d="M-1684.192-1271.376v4.005h6.16v1.442h-6.16v4.309h6.73v1.46h-8.369v-12.677h8.173v1.46Z"
              transform="translate(1687.37 1292.283)" fill="#131c1b" />
            <path id="Path_654" data-name="Path 654"
              d="M-1672.883-1259.953l-3.275-9.044h1.673l1.281,3.792c.465,1.371.891,2.652,1.318,4.023h.036c.427-1.371.836-2.652,1.3-4.023l1.3-3.792h1.673l-3.276,9.044Z"
              transform="translate(1686.85 1292.076)" fill="#131c1b" />
            <path id="Path_655" data-name="Path 655"
              d="M-1659.657-1262.673h1.6a3.759,3.759,0,0,1-3.987,2.955c-2.67,0-4.255-1.941-4.255-4.9,0-2.67,1.567-4.646,4.2-4.646a3.871,3.871,0,0,1,3.953,3.151,8.463,8.463,0,0,1,.177,1.942h-6.765c.071,2.225,1.21,3.24,2.688,3.24A2.25,2.25,0,0,0-1659.657-1262.673Zm-5.057-2.688h5.2c-.162-1.764-1.193-2.689-2.582-2.689A2.6,2.6,0,0,0-1664.714-1265.362Z"
              transform="translate(1686.32 1292.091)" fill="#131c1b" />
            <path id="Path_656" data-name="Path 656"
              d="M-1650.206-1269.021v1.406c-.2-.017-.426-.052-.622-.052-1.71,0-2.672,1.1-2.672,3.1v4.611h-1.566V-1269h1.5v1.387h.036a2.939,2.939,0,0,1,2.67-1.477A2.779,2.779,0,0,1-1650.206-1269.021Z"
              transform="translate(1685.716 1292.082)" fill="#131c1b" />
            <path id="Path_657" data-name="Path 657"
              d="M-1644.662-1259.544c-.89,2.314-1.781,2.956-3.72,2.956a2.887,2.887,0,0,1-.819-.089V-1258a2.368,2.368,0,0,0,.747.108c1.193,0,1.657-.428,2.245-2.031l-3.436-9.079h1.69l2.6,7.192h.036l2.636-7.192h1.655Z"
              transform="translate(1685.425 1292.076)" fill="#131c1b" />
            <path id="Path_658" data-name="Path 658"
              d="M-1634.86-1261.395v1.281a4.417,4.417,0,0,1-1,.107c-1.727,0-2.457-.73-2.457-2.6v-5.27h-1.568v-1.245h1.568v-2.192h1.567v2.192h1.8v1.245h-1.8v5.11c0,1.033.338,1.46,1.247,1.46A2.252,2.252,0,0,0-1634.86-1261.395Z"
              transform="translate(1684.9 1292.201)" fill="#131c1b" />
            <path id="Path_659" data-name="Path 659"
              d="M-1630.81-1268.064a3.182,3.182,0,0,1,2.689-1.336c2.067,0,3.277,1.247,3.277,3.722v5.519h-1.567v-5.395c0-1.888-.783-2.564-2.084-2.564-1.281,0-2.35.943-2.35,2.778v5.181h-1.567v-12.677h1.567v4.772Z"
              transform="translate(1684.498 1292.283)" fill="#131c1b" />
            <path id="Path_660" data-name="Path 660"
              d="M-1621.385-1271.074v-1.762h1.565v1.762Zm0,10.915v-9.044h1.565v9.044Z"
              transform="translate(1683.905 1292.283)" fill="#131c1b" />
            <path id="Path_661" data-name="Path 661"
              d="M-1609.039-1265.483v5.519h-1.567v-5.395c0-1.888-.783-2.564-2.084-2.564-1.281,0-2.349.961-2.349,2.778v5.181h-1.568v-9.044h1.514v1.192h.036a3.2,3.2,0,0,1,2.741-1.389C-1610.249-1269.2-1609.039-1267.958-1609.039-1265.483Z"
              transform="translate(1683.648 1292.088)" fill="#131c1b" />
            <path id="Path_662" data-name="Path 662"
              d="M-1599.743-1267.694h.036v-1.316h1.514v8.492c0,2.652-1.425,3.987-3.951,3.987-2.315,0-3.687-1.085-3.741-2.866h1.568c.053,1.05.872,1.656,2.191,1.656,1.6,0,2.4-.838,2.4-2.848v-.979h-.036a3.059,3.059,0,0,1-2.688,1.512c-2.333,0-3.828-1.816-3.828-4.593,0-2.8,1.5-4.594,3.828-4.594A3.007,3.007,0,0,1-1599.743-1267.694Zm-4.9,3.045c0,1.977.961,3.276,2.44,3.276,1.565,0,2.528-1.264,2.528-3.276,0-2.03-.963-3.294-2.528-3.294C-1603.678-1267.943-1604.639-1266.644-1604.639-1264.649Z"
              transform="translate(1683.093 1292.09)" fill="#131c1b" />
            <path id="Path_663" data-name="Path 663"
              d="M-1586.811-1263.791c0,2.51-1.211,3.721-3.578,3.721a3.314,3.314,0,0,1-.892-.107v-1.46a4.457,4.457,0,0,0,.767.089c1.352,0,2.064-.641,2.064-2.456v-8.831h1.639Z"
              transform="translate(1682.286 1292.283)" fill="#131c1b" />
            <path id="Path_664" data-name="Path 664"
              d="M-1583.3-1263.479V-1269h1.567v5.393c0,1.888.783,2.564,2.082,2.564,1.264,0,2.351-.961,2.351-2.778V-1269h1.566v9.044h-1.514v-1.193h-.035a3.238,3.238,0,0,1-2.76,1.388C-1582.108-1259.758-1583.3-1261-1583.3-1263.479Z"
              transform="translate(1681.857 1292.076)" fill="#131c1b" />
            <path id="Path_665" data-name="Path 665"
              d="M-1565.829-1266.181h-1.533a1.765,1.765,0,0,0-2.011-1.87c-1.085,0-1.763.5-1.763,1.282,0,.943.659,1.1,2.172,1.46,1.656.409,3.419.784,3.419,2.884,0,1.621-1.389,2.706-3.578,2.706-2.369,0-3.775-1.139-3.792-3.258h1.584c0,1.3.82,2.012,2.226,2.012,1.174,0,1.959-.534,1.959-1.353,0-1.05-.749-1.246-2.493-1.674-1.512-.374-3.062-.677-3.062-2.653,0-1.549,1.371-2.616,3.348-2.616C-1567.147-1269.261-1565.829-1268.176-1565.829-1266.181Z"
              transform="translate(1681.299 1292.091)" fill="#131c1b" />
            <path id="Path_666" data-name="Path 666"
              d="M-1558.938-1261.395v1.281a4.412,4.412,0,0,1-1,.107c-1.727,0-2.457-.73-2.457-2.6v-5.27h-1.567v-1.245h1.567v-2.192h1.567v2.192h1.8v1.245h-1.8v5.11c0,1.033.338,1.46,1.247,1.46A2.253,2.253,0,0,0-1558.938-1261.395Z"
              transform="translate(1680.817 1292.201)" fill="#131c1b" />
            <path id="Path_667" data-name="Path 667"
              d="M-1677.385-1237.568l-1.112-4.75c-.4-1.7-.757-3.419-1.045-5.137h-.033c-.287,1.718-.641,3.436-1.044,5.137l-1.112,4.75h-3.218l-2.509-11.993h2.425l.858,4.362c.338,1.718.642,3.488.876,5.188h.035c.3-1.7.674-3.453,1.095-5.188l1.044-4.362h3.133l1.045,4.362c.42,1.735.791,3.488,1.094,5.188h.035c.236-1.7.538-3.47.876-5.188l.859-4.362h2.424l-2.509,11.993Z"
              transform="translate(1687.458 1291.031)" fill="#fff" />
            <path id="Path_668" data-name="Path 668"
              d="M-1658.514-1243.58c0,3.891-2.156,6.266-5.677,6.266s-5.676-2.375-5.676-6.266,2.156-6.266,5.676-6.266S-1658.514-1247.471-1658.514-1243.58Zm-8.792,0c0,2.527,1.177,4.076,3.115,4.076s3.116-1.549,3.116-4.076-1.178-4.076-3.116-4.076S-1667.307-1246.107-1667.307-1243.58Z"
              transform="translate(1686.512 1291.047)" fill="#fff" />
            <path id="Path_669" data-name="Path 669"
              d="M-1651.158-1249.561c3.015,0,4.379,1.246,4.379,3.386a2.9,2.9,0,0,1-2.19,2.931v.034c.841.3,1.247.808,1.8,2.325l1.2,3.318h-2.695l-.959-2.846c-.438-1.28-.926-1.734-2.105-1.734h-1.364v4.581h-2.477v-11.993Zm-1.938,5.44h1.752c1.5,0,2.071-.674,2.071-1.769,0-1.162-.792-1.667-2.207-1.667h-1.617Z"
              transform="translate(1685.744 1291.031)" fill="#fff" />
            <path id="Path_670" data-name="Path 670"
              d="M-1633.817-1237.568h-3.15l-4.059-5.66h-.034v5.66h-2.476v-11.993h2.476v5.272h.034l3.924-5.272h2.9l-4.565,5.693Z"
              transform="translate(1685.096 1291.031)" fill="#fff" />
            <path id="Path_671" data-name="Path 671"
              d="M-1624.118-1245.905h-2.509a1.835,1.835,0,0,0-2.088-1.97c-1.095,0-1.836.538-1.836,1.313,0,.926.724,1.229,2.61,1.7,2.259.556,4.212,1.146,4.212,3.756,0,2.274-1.888,3.79-4.683,3.79-2.982,0-4.85-1.483-4.85-4.211h2.56c0,1.449.791,2.207,2.324,2.207,1.264,0,2.073-.59,2.073-1.533,0-1.061-.776-1.263-2.476-1.7-2.259-.573-4.312-1.112-4.312-3.74,0-2.105,1.8-3.554,4.429-3.554C-1625.667-1249.846-1624.118-1248.482-1624.118-1245.905Z"
              transform="translate(1684.544 1291.047)" fill="#fff" />
            <path id="Path_672" data-name="Path 672"
              d="M-1612.222-1249.561c3.015,0,4.38,1.246,4.38,3.386a2.9,2.9,0,0,1-2.191,2.931v.034c.842.3,1.247.808,1.8,2.325l1.194,3.318h-2.694l-.959-2.846c-.438-1.28-.926-1.734-2.106-1.734h-1.364v4.581h-2.476v-11.993Zm-1.938,5.44h1.752c1.5,0,2.071-.674,2.071-1.769,0-1.162-.791-1.667-2.206-1.667h-1.618Z"
              transform="translate(1683.65 1291.031)" fill="#fff" />
            <path id="Path_673" data-name="Path 673" d="M-1604.6-1237.568v-11.993h2.476v11.993Z"
              transform="translate(1683.003 1291.031)" fill="#fff" />
            <path id="Path_674" data-name="Path 674"
              d="M-1588.992-1245.837h-2.66a2.118,2.118,0,0,0-2.341-1.82c-1.921,0-3.133,1.549-3.133,4.127,0,2.628,1.177,4.228,3.083,4.228,1.717,0,2.66-.995,2.694-2.847h-2.846v-2.021h5.153v6.586h-2.088v-1.3h-.033a4.148,4.148,0,0,1-3.5,1.532c-3.067,0-5.021-2.341-5.021-6.181,0-3.926,2.191-6.317,5.694-6.317C-1591.045-1249.846-1589.243-1248.3-1588.992-1245.837Z"
              transform="translate(1682.739 1291.047)" fill="#fff" />
            <path id="Path_675" data-name="Path 675"
              d="M-1578.066-1237.568v-5.17h-4.919v5.17h-2.476v-11.993h2.476v4.7h4.919v-4.7h2.476v11.993Z"
              transform="translate(1681.974 1291.031)" fill="#fff" />
            <path id="Path_676" data-name="Path 676"
              d="M-1567.176-1247.439v9.871h-2.476v-9.871h-3.774v-2.122h10.021v2.122Z"
              transform="translate(1681.326 1291.031)" fill="#fff" />
            <path id="Path_677" data-name="Path 677"
              d="M-1560.583-1240.9l-.521-8.657h2.862l-.521,8.657Zm-.387,3.336v-2.224h2.593v2.224Z"
              transform="translate(1680.664 1291.031)" fill="#fff" />
          </g>
        </g>
        <g id="Group_954" data-name="Group 954" transform="translate(-613.289 -6372.624)">
          <g id="Group_951" data-name="Group 951" transform="translate(613.289 7001.857)">
            <path id="Path_738" data-name="Path 738"
              d="M857.91,405.876c-65.933,0-120.357-58.557-120.9-59.148l-.552-.6.552-.6c.545-.591,54.969-59.148,120.9-59.148s120.354,58.557,120.9,59.148l.552.6-.552.6C978.264,347.319,923.841,405.876,857.91,405.876ZM738.9,346.123c5.958,6.21,57.474,57.966,119.015,57.966s113.057-51.752,119.011-57.966c-5.958-6.21-57.474-57.966-119.011-57.966C796.353,288.158,744.85,339.91,738.9,346.123Z"
              transform="translate(-736.457 -286.37)" fill="#3ecdc4" />
          </g>
          <g id="Group_952" data-name="Group 952" transform="translate(706.974 7033.845)">
            <path id="Path_739" data-name="Path 739"
              d="M792.42,351.527a27.765,27.765,0,1,1,27.765-27.765A27.8,27.8,0,0,1,792.42,351.527Zm0-53.287a25.522,25.522,0,1,0,25.526,25.522A25.553,25.553,0,0,0,792.42,298.24Z"
              transform="translate(-764.652 -295.997)" fill="#3ecdc4" />
          </g>
          <g id="Group_953" data-name="Group 953" transform="translate(674.99 7001.857)">
            <path id="Path_740" data-name="Path 740"
              d="M814.779,405.876a59.753,59.753,0,1,1,59.75-59.753A59.822,59.822,0,0,1,814.779,405.876Zm0-116.722a56.967,56.967,0,1,0,56.966,56.969A57.034,57.034,0,0,0,814.779,289.154Z"
              transform="translate(-755.026 -286.37)" fill="#3ecdc4" />
          </g>
        </g>
      </svg>
