<svg xmlns="http://www.w3.org/2000/svg" width="100%" height="200.116" viewBox="0 0 747.209 200.116">
  <g id="Group_930" data-name="Group 930" transform="translate(2139.646 1339.183)">
    <g id="Group_919" data-name="Group 919" transform="translate(-2139.646 -1339.183)">
      <g id="Group_918" data-name="Group 918">
        <path id="Path_626" data-name="Path 626" d="M-2075.845-1232.145h-24.246v-93.183h13.854v-13.856h-13.856v0h-39.553v95.222l25.668,25.668h13.885v0h24.248Z" transform="translate(2139.646 1339.183)" fill="#40ccb4"/>
        <path id="Path_627" data-name="Path 627" d="M-1353.6-1229.789l-25.668-25.668h-13.885v0H-1417.4l13.856,13.856h10.39v93.183h-13.854v13.856h53.409Z" transform="translate(2100.81 1334.681)" fill="#40ccb4"/>
      </g>
    </g>
    <g id="Group_921" data-name="Group 921" transform="translate(-2046.944 -1294.439)">
      <path id="Path_628" data-name="Path 628" d="M-1879.529-1245.234v-18.805c0-8.728-5.518-13.512-15.072-13.512-9.028,0-14.982,4.335-15.866,11.682h6.028c.735-3.824,4.259-6.313,9.553-6.313,5.878,0,9.328,2.94,9.328,7.784v.809h-11.023c-9.838,0-15.056,5.219-15.056,12.7,0,6.838,5.579,11.682,13.812,11.682,6.463,0,10.212-2.864,12.566-6.239v5.8h9.988v-5.593Zm-6.028-11.158c0,6.239-4.335,12.042-11.833,12.042-4.993,0-8.143-3.225-8.143-6.9,0-4.26,3-7.274,8.369-7.274h11.607Z" transform="translate(2034.684 1291.125)" fill="#131c1b"/>
      <path id="Path_629" data-name="Path 629" d="M-2008.914-1161.463h-5.95l-.074-5c-2.2,2.791-5.8,5.436-11.974,5.436-8.227,0-14.765-4.628-14.765-17.042v-20.863h6.024v20.5c0,7.787,3.526,11.9,9.77,11.9,6.832,0,10.945-5.216,10.945-13.663v-18.732h6.024Z" transform="translate(2041.676 1286.898)" fill="#131c1b"/>
      <path id="Path_630" data-name="Path 630" d="M-1985.088-1166.194c5.216,0,8.889-2.277,8.889-5.729,0-4.7-4.04-5.216-9.55-5.876-8.154-1.029-14.838-2.572-14.838-10.358,0-6.831,6.244-11.386,14.471-11.312,8.448.074,14.546,4.113,15.133,11.9h-6.024c-.441-3.819-4.041-6.758-9.109-6.758s-8.521,2.278-8.521,5.73c0,4.113,3.893,4.48,9.182,5.142,8.374,1.029,15.206,2.791,15.206,11.092,0,6.979-6.611,11.313-14.839,11.313-9.549,0-16.161-4.554-16.307-12.782h6.024C-1995.152-1169.425-1991.184-1166.194-1985.088-1166.194Z" transform="translate(2039.51 1286.927)" fill="#131c1b"/>
      <path id="Path_631" data-name="Path 631" d="M-1945.071-1166.475c-5.345-.454-9.131-2.68-11.13-7.95a16.057,16.057,0,0,1-.742-4.3v-1.847h29.513c0-8.678-3.559-15.355-11.114-18.1a18.338,18.338,0,0,0-6.527-1.12h-.3c-8.98,0-15.582,5.5-17.43,14.173a21.932,21.932,0,0,0-.515,5.043v.15c0,7.784,3.332,13.871,8.965,16.975a18.161,18.161,0,0,0,9.282,2.378c9.116,0,16.1-6.224,17.43-15.643h-6.087C-1934.909-1170.64-1939.134-1166.475-1945.071-1166.475Zm0-27.893c5.483,0,9.495,3.407,11.055,8.753h-22.563A11.673,11.673,0,0,1-1945.071-1194.368Z" transform="translate(2037.463 1286.944)" fill="#131c1b"/>
      <path id="Path_632" data-name="Path 632" d="M-1918.867-1198.72h6.063v6.876l7.1-6.876h6.063v10.8h-6.063v-3.4l-7.1,6.876v23.439h-6.063Z" transform="translate(2035.073 1286.886)" fill="#131c1b"/>
      <path id="Path_633" data-name="Path 633" d="M-1865.678-1276.878h6.063V-1270l7.1-6.876h6.063v10.8h-6.063v-3.4l-7.1,6.876v23.439h-6.063Z" transform="translate(2032.212 1291.089)" fill="#131c1b"/>
      <path id="Path_634" data-name="Path 634" d="M-1874.126-1199.448h6.643v-14.024h16.682v5.536h-10.629v8.488h10.629v5.536h-10.629v32.108h-6.053v-32.108h-6.643Z" transform="translate(2032.667 1287.68)" fill="#131c1b"/>
      <path id="Path_635" data-name="Path 635" d="M-1840.462-1198.651h6.052v6.865l7.086-6.865h6.053v10.776h-6.053v-3.4l-7.086,6.865v23.4h-6.052Z" transform="translate(2030.857 1286.883)" fill="#131c1b"/>
      <g id="Group_920" data-name="Group 920" transform="translate(216.951 73.548)">
        <rect id="Rectangle_469" data-name="Rectangle 469" width="6.13" height="38.124" transform="translate(1.482 14.203)" fill="#131c1b"/>
        <path id="Path_636" data-name="Path 636" d="M-1803.3-1209.659l-4.51,4.584-4.584-4.584,4.584-4.51Z" transform="translate(1812.397 1214.169)" fill="#131c1b"/>
      </g>
      <path id="Path_637" data-name="Path 637" d="M-1778.88-1166.475c-5.345-.454-9.131-2.68-11.13-7.95a16.062,16.062,0,0,1-.742-4.3v-1.847h29.513c0-8.678-3.559-15.355-11.114-18.1a18.338,18.338,0,0,0-6.527-1.12h-.3c-8.98,0-15.583,5.5-17.43,14.173a21.925,21.925,0,0,0-.515,5.043v.15c0,7.784,3.332,13.871,8.965,16.975a18.161,18.161,0,0,0,9.282,2.378c9.116,0,16.1-6.224,17.43-15.643h-6.087C-1768.718-1170.64-1772.943-1166.475-1778.88-1166.475Zm0-27.893c5.481,0,9.495,3.407,11.055,8.753h-22.563A11.673,11.673,0,0,1-1778.88-1194.368Z" transform="translate(2028.526 1286.944)" fill="#131c1b"/>
      <path id="Path_638" data-name="Path 638" d="M-1823.047-1244.633c-5.345-.454-9.131-2.68-11.13-7.95a16.058,16.058,0,0,1-.743-4.3v-1.847h29.514c0-8.678-3.559-15.355-11.115-18.1a18.328,18.328,0,0,0-6.526-1.12h-.3c-8.98,0-15.583,5.5-17.43,14.174a21.925,21.925,0,0,0-.515,5.043v.15c0,7.784,3.332,13.871,8.965,16.975a18.158,18.158,0,0,0,9.282,2.378c9.116,0,16.1-6.224,17.43-15.643h-6.088C-1812.885-1248.8-1817.11-1244.633-1823.047-1244.633Zm0-27.893c5.481,0,9.495,3.407,11.054,8.753h-22.562A11.673,11.673,0,0,1-1823.047-1272.526Z" transform="translate(2030.901 1291.147)" fill="#131c1b"/>
      <path id="Path_639" data-name="Path 639" d="M-1718.187-1181.885v20.863h-6.024v-20.5c0-7.786-3.6-11.9-10.137-11.9-7.051,0-11.312,5.216-11.312,13.662v18.733h-6.024v-37.464h5.95l.074,5.069c2.2-2.865,6.024-5.51,12.341-5.51C-1724.872-1198.927-1718.187-1194.3-1718.187-1181.885Z" transform="translate(2026.083 1286.898)" fill="#131c1b"/>
      <path id="Path_640" data-name="Path 640" d="M-1709.164-1180.98c0,12.191,7.633,19.165,18,19.165a15.172,15.172,0,0,0,12.852-6.464l.075,6.028h5.954v-51.423h-6.028v19.69c-2.28-3.6-6.538-6.178-12.852-6.178C-1701.531-1200.161-1709.164-1192.452-1709.164-1180.98Zm6.164,0c0-8.158,4.993-13.813,12.417-13.813,7.348,0,12.343,5.729,12.343,13.947,0,8.008-4.994,13.677-12.343,13.677C-1698.007-1167.169-1703-1172.838-1703-1180.98Z" transform="translate(2023.797 1287.691)" fill="#131c1b"/>
      <rect id="Rectangle_470" data-name="Rectangle 470" width="6.024" height="51.421" transform="translate(360.768 74.455)" fill="#131c1b"/>
      <path id="Path_641" data-name="Path 641" d="M-1647.3-1148.157h9.039l5.54-13.3-14.58-37.47h6.342l11.445,30.326,11.08-30.326h6.342l-21.942,56.164H-1647.3Z" transform="translate(2020.47 1286.898)" fill="#131c1b"/>
      <path id="Path_642" data-name="Path 642" d="M-1500.256-1198.651h6.052v6.865l7.086-6.865h6.053v10.776h-6.053v-3.4l-7.086,6.865v23.4h-6.052Z" transform="translate(2012.563 1286.883)" fill="#131c1b"/>
      <path id="Path_643" data-name="Path 643" d="M-1526.482-1166.438c-5.32-.451-9.087-2.666-11.076-7.91a16.038,16.038,0,0,1-.738-4.28v-1.838h29.369c0-8.635-3.542-15.28-11.061-18.008a18.255,18.255,0,0,0-6.495-1.116h-.3c-8.936,0-15.506,5.471-17.344,14.105a21.81,21.81,0,0,0-.513,5.018v.15c0,7.746,3.316,13.8,8.921,16.892a18.07,18.07,0,0,0,9.237,2.366c9.071,0,16.018-6.194,17.344-15.566h-6.058C-1516.371-1170.581-1520.575-1166.438-1526.482-1166.438Zm0-27.756c5.455,0,9.448,3.39,11,8.71h-22.452A11.615,11.615,0,0,1-1526.482-1194.194Z" transform="translate(2014.95 1286.933)" fill="#131c1b"/>
      <path id="Path_644" data-name="Path 644" d="M-1457.29-1166.438c-5.319-.451-9.086-2.666-11.075-7.91a15.994,15.994,0,0,1-.739-4.28v-1.838h29.369c0-8.635-3.542-15.28-11.061-18.008a18.248,18.248,0,0,0-6.495-1.116h-.3c-8.935,0-15.506,5.471-17.344,14.105a21.817,21.817,0,0,0-.512,5.018v.15c0,7.746,3.316,13.8,8.921,16.892a18.063,18.063,0,0,0,9.236,2.366c9.072,0,16.019-6.194,17.344-15.566H-1446C-1447.178-1170.581-1451.383-1166.438-1457.29-1166.438Zm0-27.756c5.455,0,9.448,3.39,11,8.71h-22.452A11.614,11.614,0,0,1-1457.29-1194.194Z" transform="translate(2011.229 1286.933)" fill="#131c1b"/>
      <path id="Path_645" data-name="Path 645" d="M-1552.488-1182.767v20.963h-6.052V-1182.4c0-7.824-3.765-11.958-10.26-11.958-7.012,0-11.367,5.24-11.367,13.729v18.822h-6.053v-51.669h6.053v20.225a13.826,13.826,0,0,1,12.4-6.643C-1559.352-1199.892-1552.488-1195.241-1552.488-1182.767Z" transform="translate(2017.186 1287.68)" fill="#131c1b"/>
      <path id="Path_646" data-name="Path 646" d="M-1956.98-1244.633c-5.345-.454-9.131-2.68-11.13-7.95a16.058,16.058,0,0,1-.742-4.3v-1.847h29.513c0-8.678-3.559-15.355-11.115-18.1a18.337,18.337,0,0,0-6.527-1.12h-.3c-8.98,0-15.582,5.5-17.43,14.174a21.932,21.932,0,0,0-.515,5.043v.15c0,7.784,3.332,13.871,8.965,16.975a18.161,18.161,0,0,0,9.283,2.378c9.116,0,16.1-6.224,17.43-15.643h-6.087C-1946.818-1248.8-1951.043-1244.633-1956.98-1244.633Zm0-27.893c5.481,0,9.494,3.407,11.055,8.753h-22.563A11.673,11.673,0,0,1-1956.98-1272.526Z" transform="translate(2038.103 1291.147)" fill="#131c1b"/>
      <path id="Path_647" data-name="Path 647" d="M-1975.346-1291.9l-17.823,51.846h-6.67l-9.124-28.109-9.493,28.109-6.679.074-16.541-51.92h6.227l13.875,44.8,9.936-30.785H-2006l9.428,30.785,15.01-44.8Z" transform="translate(2041.676 1291.897)" fill="#131c1b"/>
      <path id="Path_648" data-name="Path 648" d="M-1745.056-1245.124v-18.744c0-8.7-5.5-13.468-15.022-13.468-9,0-14.932,4.32-15.814,11.644h6.009c.732-3.812,4.245-6.292,9.522-6.292,5.859,0,9.3,2.93,9.3,7.757v.807h-10.986c-9.806,0-15.007,5.2-15.007,12.661,0,6.816,5.56,11.643,13.767,11.643,6.442,0,10.179-2.855,12.525-6.218v5.784h9.955v-5.575Zm-6.009-11.121c0,6.219-4.319,12-11.793,12-4.978,0-8.117-3.214-8.117-6.876,0-4.246,2.989-7.25,8.341-7.25h11.569Z" transform="translate(2027.447 1291.114)" fill="#131c1b"/>
      <rect id="Rectangle_471" data-name="Rectangle 471" width="6.004" height="51.253" transform="translate(293.809 0.746)" fill="#131c1b"/>
      <rect id="Rectangle_472" data-name="Rectangle 472" width="6.004" height="51.253" transform="translate(308.767 0.746)" fill="#131c1b"/>
    </g>
    <rect id="Rectangle_473" data-name="Rectangle 473" width="352.217" height="6.239" transform="translate(-2047.652 -1156.121)" fill="#131c1b"/>
    <g id="Group_923" data-name="Group 923" transform="translate(-1711.773 -1295.85)">
      <g id="Group_922" data-name="Group 922" transform="translate(75.722)">
        <path id="Path_649" data-name="Path 649" d="M-1596.786-1280.711l-1.335-5.537c-.463-1.887-.907-3.792-1.318-5.679h-.035c-.41,1.888-.855,3.792-1.317,5.679l-1.335,5.537h-2.35l-2.956-12.677h1.638l1.193,5.128c.463,1.994.89,3.988,1.318,5.964h.035c.445-1.976.907-3.988,1.406-5.982l1.246-5.109h2.28l1.247,5.109c.5,1.994.96,4.006,1.406,5.982h.036c.409-1.976.854-3.97,1.316-5.964l1.193-5.128h1.638l-2.956,12.677Z" transform="translate(1607.433 1293.388)" fill="#131c1b"/>
        <path id="Path_650" data-name="Path 650" d="M-1587.127-1288.616a3.181,3.181,0,0,1,2.688-1.336c2.066,0,3.276,1.247,3.276,3.722v5.519h-1.567v-5.395c0-1.888-.782-2.564-2.082-2.564-1.283,0-2.351.944-2.351,2.778v5.181h-1.566v-12.677h1.566v4.772Z" transform="translate(1606.427 1293.388)" fill="#131c1b"/>
        <path id="Path_651" data-name="Path 651" d="M-1571.758-1283.225h1.6a3.76,3.76,0,0,1-3.988,2.955c-2.67,0-4.254-1.941-4.254-4.9,0-2.67,1.567-4.646,4.2-4.646a3.872,3.872,0,0,1,3.953,3.151,8.47,8.47,0,0,1,.177,1.942h-6.765c.071,2.225,1.21,3.24,2.687,3.24A2.249,2.249,0,0,0-1571.758-1283.225Zm-5.057-2.688h5.2c-.161-1.763-1.193-2.689-2.581-2.689A2.6,2.6,0,0,0-1576.815-1285.914Z" transform="translate(1605.872 1293.196)" fill="#131c1b"/>
        <path id="Path_652" data-name="Path 652" d="M-1559.6-1286.035v5.519h-1.567v-5.395c0-1.888-.782-2.564-2.082-2.564-1.283,0-2.351.961-2.351,2.778v5.181h-1.566v-9.044h1.514v1.192h.034a3.205,3.205,0,0,1,2.741-1.389C-1560.81-1289.757-1559.6-1288.51-1559.6-1286.035Z" transform="translate(1605.268 1293.193)" fill="#131c1b"/>
      </g>
      <path id="Path_653" data-name="Path 653" d="M-1684.192-1271.376v4.005h6.16v1.442h-6.16v4.309h6.73v1.46h-8.369v-12.677h8.173v1.46Z" transform="translate(1687.37 1292.283)" fill="#131c1b"/>
      <path id="Path_654" data-name="Path 654" d="M-1672.883-1259.953l-3.275-9.044h1.673l1.281,3.792c.465,1.371.891,2.652,1.318,4.023h.036c.427-1.371.836-2.652,1.3-4.023l1.3-3.792h1.673l-3.276,9.044Z" transform="translate(1686.85 1292.076)" fill="#131c1b"/>
      <path id="Path_655" data-name="Path 655" d="M-1659.657-1262.673h1.6a3.759,3.759,0,0,1-3.987,2.955c-2.67,0-4.255-1.941-4.255-4.9,0-2.67,1.567-4.646,4.2-4.646a3.871,3.871,0,0,1,3.953,3.151,8.463,8.463,0,0,1,.177,1.942h-6.765c.071,2.225,1.21,3.24,2.688,3.24A2.25,2.25,0,0,0-1659.657-1262.673Zm-5.057-2.688h5.2c-.162-1.764-1.193-2.689-2.582-2.689A2.6,2.6,0,0,0-1664.714-1265.362Z" transform="translate(1686.32 1292.091)" fill="#131c1b"/>
      <path id="Path_656" data-name="Path 656" d="M-1650.206-1269.021v1.406c-.2-.017-.426-.052-.622-.052-1.71,0-2.672,1.1-2.672,3.1v4.611h-1.566V-1269h1.5v1.387h.036a2.939,2.939,0,0,1,2.67-1.477A2.779,2.779,0,0,1-1650.206-1269.021Z" transform="translate(1685.716 1292.082)" fill="#131c1b"/>
      <path id="Path_657" data-name="Path 657" d="M-1644.662-1259.544c-.89,2.314-1.781,2.956-3.72,2.956a2.887,2.887,0,0,1-.819-.089V-1258a2.368,2.368,0,0,0,.747.108c1.193,0,1.657-.428,2.245-2.031l-3.436-9.079h1.69l2.6,7.192h.036l2.636-7.192h1.655Z" transform="translate(1685.425 1292.076)" fill="#131c1b"/>
      <path id="Path_658" data-name="Path 658" d="M-1634.86-1261.395v1.281a4.417,4.417,0,0,1-1,.107c-1.727,0-2.457-.73-2.457-2.6v-5.27h-1.568v-1.245h1.568v-2.192h1.567v2.192h1.8v1.245h-1.8v5.11c0,1.033.338,1.46,1.247,1.46A2.252,2.252,0,0,0-1634.86-1261.395Z" transform="translate(1684.9 1292.201)" fill="#131c1b"/>
      <path id="Path_659" data-name="Path 659" d="M-1630.81-1268.064a3.182,3.182,0,0,1,2.689-1.336c2.067,0,3.277,1.247,3.277,3.722v5.519h-1.567v-5.395c0-1.888-.783-2.564-2.084-2.564-1.281,0-2.35.943-2.35,2.778v5.181h-1.567v-12.677h1.567v4.772Z" transform="translate(1684.498 1292.283)" fill="#131c1b"/>
      <path id="Path_660" data-name="Path 660" d="M-1621.385-1271.074v-1.762h1.565v1.762Zm0,10.915v-9.044h1.565v9.044Z" transform="translate(1683.905 1292.283)" fill="#131c1b"/>
      <path id="Path_661" data-name="Path 661" d="M-1609.039-1265.483v5.519h-1.567v-5.395c0-1.888-.783-2.564-2.084-2.564-1.281,0-2.349.961-2.349,2.778v5.181h-1.568v-9.044h1.514v1.192h.036a3.2,3.2,0,0,1,2.741-1.389C-1610.249-1269.2-1609.039-1267.958-1609.039-1265.483Z" transform="translate(1683.648 1292.088)" fill="#131c1b"/>
      <path id="Path_662" data-name="Path 662" d="M-1599.743-1267.694h.036v-1.316h1.514v8.492c0,2.652-1.425,3.987-3.951,3.987-2.315,0-3.687-1.085-3.741-2.866h1.568c.053,1.05.872,1.656,2.191,1.656,1.6,0,2.4-.838,2.4-2.848v-.979h-.036a3.059,3.059,0,0,1-2.688,1.512c-2.333,0-3.828-1.816-3.828-4.593,0-2.8,1.5-4.594,3.828-4.594A3.007,3.007,0,0,1-1599.743-1267.694Zm-4.9,3.045c0,1.977.961,3.276,2.44,3.276,1.565,0,2.528-1.264,2.528-3.276,0-2.03-.963-3.294-2.528-3.294C-1603.678-1267.943-1604.639-1266.644-1604.639-1264.649Z" transform="translate(1683.093 1292.09)" fill="#131c1b"/>
      <path id="Path_663" data-name="Path 663" d="M-1586.811-1263.791c0,2.51-1.211,3.721-3.578,3.721a3.314,3.314,0,0,1-.892-.107v-1.46a4.457,4.457,0,0,0,.767.089c1.352,0,2.064-.641,2.064-2.456v-8.831h1.639Z" transform="translate(1682.286 1292.283)" fill="#131c1b"/>
      <path id="Path_664" data-name="Path 664" d="M-1583.3-1263.479V-1269h1.567v5.393c0,1.888.783,2.564,2.082,2.564,1.264,0,2.351-.961,2.351-2.778V-1269h1.566v9.044h-1.514v-1.193h-.035a3.238,3.238,0,0,1-2.76,1.388C-1582.108-1259.758-1583.3-1261-1583.3-1263.479Z" transform="translate(1681.857 1292.076)" fill="#131c1b"/>
      <path id="Path_665" data-name="Path 665" d="M-1565.829-1266.181h-1.533a1.765,1.765,0,0,0-2.011-1.87c-1.085,0-1.763.5-1.763,1.282,0,.943.659,1.1,2.172,1.46,1.656.409,3.419.784,3.419,2.884,0,1.621-1.389,2.706-3.578,2.706-2.369,0-3.775-1.139-3.792-3.258h1.584c0,1.3.82,2.012,2.226,2.012,1.174,0,1.959-.534,1.959-1.353,0-1.05-.749-1.246-2.493-1.674-1.512-.374-3.062-.677-3.062-2.653,0-1.549,1.371-2.616,3.348-2.616C-1567.147-1269.261-1565.829-1268.176-1565.829-1266.181Z" transform="translate(1681.299 1292.091)" fill="#131c1b"/>
      <path id="Path_666" data-name="Path 666" d="M-1558.938-1261.395v1.281a4.412,4.412,0,0,1-1,.107c-1.727,0-2.457-.73-2.457-2.6v-5.27h-1.567v-1.245h1.567v-2.192h1.567v2.192h1.8v1.245h-1.8v5.11c0,1.033.338,1.46,1.247,1.46A2.253,2.253,0,0,0-1558.938-1261.395Z" transform="translate(1680.817 1292.201)" fill="#131c1b"/>
      <path id="Path_667" data-name="Path 667" d="M-1677.385-1237.568l-1.112-4.75c-.4-1.7-.757-3.419-1.045-5.137h-.033c-.287,1.718-.641,3.436-1.044,5.137l-1.112,4.75h-3.218l-2.509-11.993h2.425l.858,4.362c.338,1.718.642,3.488.876,5.188h.035c.3-1.7.674-3.453,1.095-5.188l1.044-4.362h3.133l1.045,4.362c.42,1.735.791,3.488,1.094,5.188h.035c.236-1.7.538-3.47.876-5.188l.859-4.362h2.424l-2.509,11.993Z" transform="translate(1687.458 1291.031)" fill="#fff"/>
      <path id="Path_668" data-name="Path 668" d="M-1658.514-1243.58c0,3.891-2.156,6.266-5.677,6.266s-5.676-2.375-5.676-6.266,2.156-6.266,5.676-6.266S-1658.514-1247.471-1658.514-1243.58Zm-8.792,0c0,2.527,1.177,4.076,3.115,4.076s3.116-1.549,3.116-4.076-1.178-4.076-3.116-4.076S-1667.307-1246.107-1667.307-1243.58Z" transform="translate(1686.512 1291.047)" fill="#fff"/>
      <path id="Path_669" data-name="Path 669" d="M-1651.158-1249.561c3.015,0,4.379,1.246,4.379,3.386a2.9,2.9,0,0,1-2.19,2.931v.034c.841.3,1.247.808,1.8,2.325l1.2,3.318h-2.695l-.959-2.846c-.438-1.28-.926-1.734-2.105-1.734h-1.364v4.581h-2.477v-11.993Zm-1.938,5.44h1.752c1.5,0,2.071-.674,2.071-1.769,0-1.162-.792-1.667-2.207-1.667h-1.617Z" transform="translate(1685.744 1291.031)" fill="#fff"/>
      <path id="Path_670" data-name="Path 670" d="M-1633.817-1237.568h-3.15l-4.059-5.66h-.034v5.66h-2.476v-11.993h2.476v5.272h.034l3.924-5.272h2.9l-4.565,5.693Z" transform="translate(1685.096 1291.031)" fill="#fff"/>
      <path id="Path_671" data-name="Path 671" d="M-1624.118-1245.905h-2.509a1.835,1.835,0,0,0-2.088-1.97c-1.095,0-1.836.538-1.836,1.313,0,.926.724,1.229,2.61,1.7,2.259.556,4.212,1.146,4.212,3.756,0,2.274-1.888,3.79-4.683,3.79-2.982,0-4.85-1.483-4.85-4.211h2.56c0,1.449.791,2.207,2.324,2.207,1.264,0,2.073-.59,2.073-1.533,0-1.061-.776-1.263-2.476-1.7-2.259-.573-4.312-1.112-4.312-3.74,0-2.105,1.8-3.554,4.429-3.554C-1625.667-1249.846-1624.118-1248.482-1624.118-1245.905Z" transform="translate(1684.544 1291.047)" fill="#fff"/>
      <path id="Path_672" data-name="Path 672" d="M-1612.222-1249.561c3.015,0,4.38,1.246,4.38,3.386a2.9,2.9,0,0,1-2.191,2.931v.034c.842.3,1.247.808,1.8,2.325l1.194,3.318h-2.694l-.959-2.846c-.438-1.28-.926-1.734-2.106-1.734h-1.364v4.581h-2.476v-11.993Zm-1.938,5.44h1.752c1.5,0,2.071-.674,2.071-1.769,0-1.162-.791-1.667-2.206-1.667h-1.618Z" transform="translate(1683.65 1291.031)" fill="#fff"/>
      <path id="Path_673" data-name="Path 673" d="M-1604.6-1237.568v-11.993h2.476v11.993Z" transform="translate(1683.003 1291.031)" fill="#fff"/>
      <path id="Path_674" data-name="Path 674" d="M-1588.992-1245.837h-2.66a2.118,2.118,0,0,0-2.341-1.82c-1.921,0-3.133,1.549-3.133,4.127,0,2.628,1.177,4.228,3.083,4.228,1.717,0,2.66-.995,2.694-2.847h-2.846v-2.021h5.153v6.586h-2.088v-1.3h-.033a4.148,4.148,0,0,1-3.5,1.532c-3.067,0-5.021-2.341-5.021-6.181,0-3.926,2.191-6.317,5.694-6.317C-1591.045-1249.846-1589.243-1248.3-1588.992-1245.837Z" transform="translate(1682.739 1291.047)" fill="#fff"/>
      <path id="Path_675" data-name="Path 675" d="M-1578.066-1237.568v-5.17h-4.919v5.17h-2.476v-11.993h2.476v4.7h4.919v-4.7h2.476v11.993Z" transform="translate(1681.974 1291.031)" fill="#fff"/>
      <path id="Path_676" data-name="Path 676" d="M-1567.176-1247.439v9.871h-2.476v-9.871h-3.774v-2.122h10.021v2.122Z" transform="translate(1681.326 1291.031)" fill="#fff"/>
      <path id="Path_677" data-name="Path 677" d="M-1560.583-1240.9l-.521-8.657h2.862l-.521,8.657Zm-.387,3.336v-2.224h2.593v2.224Z" transform="translate(1680.664 1291.031)" fill="#fff"/>
    </g>
    <g id="Group_929" data-name="Group 929" transform="translate(-1570.898 -1318.039)">
      <circle id="Ellipse_8" data-name="Ellipse 8" cx="45.268" cy="45.268" r="45.268" fill="#131c1b"/>
      <g id="Group_928" data-name="Group 928" transform="translate(10.181 10.18)">
        <g id="Group_924" data-name="Group 924">
          <path id="Path_678" data-name="Path 678" d="M-1492.732-1235.9a35.127,35.127,0,0,1-35.087-35.087,35.127,35.127,0,0,1,35.087-35.088,35.128,35.128,0,0,1,35.088,35.088A35.128,35.128,0,0,1-1492.732-1235.9Zm0-69.666a34.618,34.618,0,0,0-34.579,34.579,34.618,34.618,0,0,0,34.579,34.578,34.617,34.617,0,0,0,34.579-34.578A34.618,34.618,0,0,0-1492.732-1305.57Z" transform="translate(1527.819 1306.079)" fill="#fcfcfc"/>
        </g>
        <g id="Group_925" data-name="Group 925" transform="translate(0.502 18.072)">
          <path id="Path_679" data-name="Path 679" d="M-1492.7-1252.949c-18.775,0-34.273-16.674-34.428-16.844l-.157-.171.157-.172c.155-.169,15.653-16.844,34.428-16.844s34.274,16.674,34.429,16.844l.157.172-.157.171C-1458.429-1269.623-1473.928-1252.949-1492.7-1252.949Zm-33.891-17.015c1.7,1.767,16.367,16.507,33.891,16.507s32.2-14.738,33.892-16.507c-1.7-1.769-16.367-16.508-33.892-16.508S-1524.9-1271.733-1526.594-1269.964Z" transform="translate(1527.289 1286.98)" fill="#fcfcfc"/>
        </g>
        <g id="Group_926" data-name="Group 926" transform="translate(27.18 27.18)">
          <path id="Path_680" data-name="Path 680" d="M-1491.187-1261.54a7.915,7.915,0,0,1-7.907-7.907,7.916,7.916,0,0,1,7.907-7.908,7.916,7.916,0,0,1,7.907,7.908A7.915,7.915,0,0,1-1491.187-1261.54Zm0-15.176a7.277,7.277,0,0,0-7.268,7.269,7.276,7.276,0,0,0,7.268,7.268,7.276,7.276,0,0,0,7.269-7.268A7.276,7.276,0,0,0-1491.187-1276.715Z" transform="translate(1499.094 1277.354)" fill="#fcfcfc"/>
        </g>
        <g id="Group_927" data-name="Group 927" transform="translate(18.072 18.072)">
          <path id="Path_681" data-name="Path 681" d="M-1491.7-1252.949a17.035,17.035,0,0,1-17.015-17.015,17.035,17.035,0,0,1,17.015-17.016,17.035,17.035,0,0,1,17.016,17.016A17.035,17.035,0,0,1-1491.7-1252.949Zm0-33.238a16.242,16.242,0,0,0-16.223,16.223,16.241,16.241,0,0,0,16.223,16.221,16.24,16.24,0,0,0,16.223-16.221A16.241,16.241,0,0,0-1491.7-1286.187Z" transform="translate(1508.72 1286.98)" fill="#fcfcfc"/>
        </g>
      </g>
    </g>
  </g>
</svg>
