<svg xmlns="http://www.w3.org/2000/svg" width="25.647" height="21.11" viewBox="0 0 25.647 21.11">
  <path id="Path_215" data-name="Path 215" d="M318.954,207.818a10.588,10.588,0,0,1-2.593.739c.417-.07,1.029-.825,1.275-1.131a4.763,4.763,0,0,0,.861-1.57c.023-.045.039-.1-.005-.135a.148.148,0,0,0-.138.011,13.214,13.214,0,0,1-3.075,1.177.2.2,0,0,1-.212-.056,2.5,2.5,0,0,0-.269-.274,5.45,5.45,0,0,0-1.49-.913,5.2,5.2,0,0,0-2.285-.368,5.461,5.461,0,0,0-2.167.612,5.585,5.585,0,0,0-1.749,1.428,5.378,5.378,0,0,0-1.044,2.092,5.67,5.67,0,0,0-.056,2.208c.017.124.006.14-.106.124a16.426,16.426,0,0,1-10.567-5.379c-.123-.141-.19-.141-.291.011a5.358,5.358,0,0,0,.913,6.331c.207.2.42.393.649.572a5.385,5.385,0,0,1-2.039-.572c-.123-.078-.186-.033-.2.107a3.242,3.242,0,0,0,.033.6,5.417,5.417,0,0,0,3.34,4.32,3.177,3.177,0,0,0,.677.208,6.038,6.038,0,0,1-2,.061c-.146-.028-.2.045-.146.185a5.626,5.626,0,0,0,4.2,3.519c.191.033.381.033.572.078-.011.018-.023.018-.034.034-.471.72-2.107,1.255-2.869,1.521a10.272,10.272,0,0,1-4.358.558c-.234-.035-.283-.032-.347,0s-.008.1.067.156c.3.2.6.371.907.538a14.392,14.392,0,0,0,2.913,1.166c5.235,1.446,11.133.383,15.064-3.523,3.087-3.067,4.169-7.3,4.169-11.532,0-.166.2-.257.311-.345a10.182,10.182,0,0,0,2.051-2.132.65.65,0,0,0,.136-.408v-.022C319.06,207.75,319.058,207.771,318.954,207.818Z" transform="translate(-293.413 -205.288)" fill="#19a79e"/>
</svg>
